<svg width="1240" height="611" viewBox="0 0 1240 611" fill="none" xmlns="http://www.w3.org/2000/svg">
<path d="M0 36.1165C0 16.1699 16.1699 0 36.1165 0H318.427C338.374 0 354.544 16.1699 354.544 36.1165V211.133C354.544 231.08 370.714 247.25 390.66 247.25H606H849.942C869.888 247.25 886.058 231.08 886.058 211.133V36.1165C886.058 16.1699 902.228 0 922.175 0H1203.88C1223.83 0 1240 16.1699 1240 36.1165V574.252C1240 594.199 1223.83 610.369 1203.88 610.369H36.1164C16.1699 610.369 0 594.199 0 574.252V36.1165Z" fill="#EFDCC7"/>
</svg>
